<svg xmlns="http://www.w3.org/2000/svg" xmlns:xlink="http://www.w3.org/1999/xlink" viewBox="0 0 141.7 141.8"><defs><style>.cls-1{fill:none;}.cls-2{fill:#acefe8;}.cls-3{fill:#b9ccef;}.cls-4{fill:#a5efa5;}.cls-5{fill:#edefb1;}.cls-6{fill:#d6cbef;}.cls-7{fill:#efd4bd;}.cls-8{fill:#69cc91;}.cls-9{fill:#faffeb;}.cls-10{fill:#5a9b5c;}.cls-11{fill:#55b77c;}.cls-12{clip-path:url(#clip-path);}.cls-13{fill:#fff;}</style><clipPath id="clip-path"><path class="cls-1" d="M83,129a40.93,40.93,0,0,1,12-10.7,13.78,13.78,0,0,0,2.5-1.9c.4-.4,1.1-1.1,1.8-1.9,1.8-1.5,3.1-2.4,4.4-5.4a22.5,22.5,0,0,0,.8-2.4c2.4-9.6,12.3-14.5,12.3-14.5.1-1.1.2-2.2.2-3.4a22.21,22.21,0,0,1,7.6-16.1,50.61,50.61,0,0,0,8.1-9.7,15.83,15.83,0,0,0,1.3-2.4c12.6,23.3,4.3,29.5.1,34.3s-3.8,11.5-6.7,18.3-10.9,7.4-14.2,14.5S102,142,94.4,139.8s-19.2,1.9-19.2,1.9,2.2-4.3,5.5-9.4Z"/></clipPath></defs><title>资源 1</title><g id="图层_2" data-name="图层 2"><g id="图层_1-2" data-name="图层 1"><rect class="cls-2" x="31.83" y="35.01" width="16.24" height="17.12"/><rect class="cls-3" x="65.64" y="44.56" width="10.43" height="10.97"/><rect class="cls-4" x="5.79" width="19.32" height="20.32"/><rect class="cls-5" y="31.06" width="21.62" height="22.94"/><rect class="cls-6" x="35.67" y="5.82" width="16.24" height="17.12"/><rect class="cls-7" x="55.97" y="26.12" width="11.52" height="12.18"/><path class="cls-8" d="M91,61.2c2.1.3,3.9-.8,5.7-2.1,3.1-2.3,4.6-4.9,11.8-4,8.6,1,7.1-8.4,19.5-6.9,6.2.7,13.7-1.4,13.7-1.4s-.9,7-10.1,9.3c-7.8,1.9-10.3,4.2-11.9,7.1-1.1,1.9-6.4,1.7-8.5,2.1-3,.4-5.2.9-9.2,5,0,0-1.3,5.6-9.5,7.2a28.26,28.26,0,0,0-12.8,5.8C69.1,88,62.3,93.5,56.1,90.9c-8.4-3.5-19.3-9-19.3-9a29.47,29.47,0,0,0,11.9-9.2,15.47,15.47,0,0,1,13.8-6.4,18,18,0,0,1,3.9.8,7.9,7.9,0,0,0,5.5-.1C74.8,65.9,75.8,58.8,91,61.2Z"/><circle class="cls-9" cx="62.1" cy="81" r="11.8"/><path id="_路径_" data-name="&lt;路径&gt;" class="cls-10" d="M54.6,72.9a.65.65,0,1,0,1.1.7,3.14,3.14,0,0,1,2.4-1.4.68.68,0,0,0,.7-.7.56.56,0,0,0-.7-.6,4.87,4.87,0,0,0-2,.7A3,3,0,0,0,54.6,72.9Z"/><circle class="cls-9" cx="85.5" cy="73.9" r="11.3"/><circle class="cls-9" cx="107.6" cy="67.3" r="10.6"/><circle class="cls-9" cx="125.7" cy="58.6" r="8.8"/><path id="_路径_2" data-name="&lt;路径&gt;" class="cls-10" d="M120.1,52.7a.58.58,0,1,0,1,.6,3.38,3.38,0,0,1,2.1-1.4.61.61,0,1,0-.2-1.2,4,4,0,0,0-1.8.7A5,5,0,0,0,120.1,52.7Z"/><path id="_路径_3" data-name="&lt;路径&gt;" class="cls-10" d="M101.6,59.4a.63.63,0,0,0,.1.9.74.74,0,0,0,.9-.1,3,3,0,0,1,2.3-1.1.6.6,0,0,0,0-1.2,5.31,5.31,0,0,0-1.9.4A4.15,4.15,0,0,0,101.6,59.4Z"/><path id="_路径_4" data-name="&lt;路径&gt;" class="cls-10" d="M79.1,65.5a.58.58,0,0,0,.2.9.74.74,0,0,0,.9-.1,3.11,3.11,0,0,1,2.4-1.2.67.67,0,0,0,.7-.6.68.68,0,0,0-.7-.7,4.68,4.68,0,0,0-2,.5A4,4,0,0,0,79.1,65.5Z"/><path class="cls-11" d="M60,102.1c-6.1-2.5-17.2-3.2-17.2-3.2a39.24,39.24,0,0,1,9.4-10.6c3.7-2.8,7.2-6.5,14-5.5,9.5,1.4,10.4-4.1,17.8-7,5-2,12-.4,15-3.8,1.5-1.6,4.3-7.2,11.8-8,6.3-.6,3.1-2.6,11.6-8.5,3.9-2.7,8.4-3,11.2-3.9a21.34,21.34,0,0,0,8-4.7c-1.9,18.7-13,26.2-13,26.2l-4.8-3c-2.6,12.6-9.2,13.5-13.3,14.9-5.1,1.7-4.5,6-9.4,9.8S86.9,96.3,81.6,100C81.5,99.9,71.2,106.7,60,102.1Z"/><path class="cls-8" d="M62.6,125.9s6.6.4,9.4,2.1c0,0,12.7,6.4,22.8-.3,7.7-5.1,27.2-36.3,27.2-36.3l11.8-30a2.19,2.19,0,0,0,.3-.5c-.1,0-.1.1-.2.1l.1-.3-.5.6c-3.7,2.5-12.6,8.4-18.5,10.4-8.4,3.1-7.8,15-13.9,17.2A21.89,21.89,0,0,0,90,97.7a13.43,13.43,0,0,1-9.2,6.5.76.76,0,0,0-.4.1,15.09,15.09,0,0,0-7.8,3.8,14.88,14.88,0,0,0-4.9,9.1,15.06,15.06,0,0,1-1.3,4.1C65.6,123.1,64.3,125.1,62.6,125.9Z"/><circle class="cls-9" cx="124.9" cy="80.6" r="11.8" transform="translate(-3 4.85) rotate(-2.2)"/><path id="_路径_5" data-name="&lt;路径&gt;" class="cls-10" d="M114.8,77.2c0,.4.3.9.7.9a1,1,0,0,0,.9-.7,3.85,3.85,0,0,1,1.8-2.8.81.81,0,0,0-.8-1.4,4.48,4.48,0,0,0-1.8,1.8A5.63,5.63,0,0,0,114.8,77.2Z"/><circle class="cls-9" cx="84.6" cy="116.8" r="12.2"/><circle class="cls-9" cx="106.8" cy="101.4" r="12.2" transform="matrix(1, -0.04, 0.04, 1, -3.81, 4.17)"/><path id="_路径_6" data-name="&lt;路径&gt;" class="cls-10" d="M98.2,94.8a.7.7,0,1,0,1.3.5,3.57,3.57,0,0,1,2.1-2,.73.73,0,1,0-.4-1.4A4.81,4.81,0,0,0,99.3,93,11.82,11.82,0,0,0,98.2,94.8Z"/><path id="_路径_7" data-name="&lt;路径&gt;" class="cls-10" d="M75.8,110.4a.75.75,0,0,0,.4.9.81.81,0,0,0,.9-.4,3.57,3.57,0,0,1,2.1-2,.73.73,0,0,0-.4-1.4,4.81,4.81,0,0,0-1.9,1.1A9.43,9.43,0,0,0,75.8,110.4Z"/><path class="cls-11" d="M83,129a40.93,40.93,0,0,1,12-10.7,13.78,13.78,0,0,0,2.5-1.9c.4-.4,1.1-1.1,1.8-1.9,1.8-1.5,3.1-2.4,4.4-5.4a22.5,22.5,0,0,0,.8-2.4c2.4-9.6,12.3-14.5,12.3-14.5.1-1.1.2-2.2.2-3.4a22.21,22.21,0,0,1,7.6-16.1,50.61,50.61,0,0,0,8.1-9.7,15.83,15.83,0,0,0,1.3-2.4c12.6,23.3,4.3,29.5.1,34.3s-3.8,11.5-6.7,18.3-10.9,7.4-14.2,14.5S102,142,94.4,139.8s-19.2,1.9-19.2,1.9,2.2-4.3,5.5-9.4Z"/><g class="cls-12"><path class="cls-13" d="M139.3,72l-.1-1.3h-.1c-.1,0-1.6.3-2.8.5-.2-.9-1.4-5.8-.5-8.5l.1-.2-1.5-.2v.1a24.8,24.8,0,0,0,.7,9,27.26,27.26,0,0,0-4.2,1.3c-5.7,2.3-9.2,5.8-10.1,10.3a18.58,18.58,0,0,0,1.8,11.9V95c-7.4,1-12.3,3.8-14.9,8.6-1.8,3.3-1.2,7.2-.6,11.2a37.44,37.44,0,0,1,.5,3.9c-6.3.2-11.2.8-14.4,3.6-3,2.6-4.6,6.9-5.4,14.5a31.51,31.51,0,0,0-3.9.4,8.48,8.48,0,0,0-6.2,3.8l-.1.1,1.1.7.1-.1a8.53,8.53,0,0,1,5.3-3.2h.1a16.87,16.87,0,0,1,3.5-.3,12.1,12.1,0,0,0-.1,1.9v.1l1.3.1v-.2c0-.7.1-1.4.1-2.1h1.1c5.3-.1,11.3-.3,14.8-4.6A18.28,18.28,0,0,0,109,120h.1c7-.2,15.5-4.3,17.5-11.5,1.5-5.4-.8-9.9-2.1-12.4,5.2-.7,9-3,11.2-6.7,3-5,2.2-11.7,1.1-17a24.24,24.24,0,0,0,2.4-.5ZM94.8,136.6c-1.6.1-3.2.2-4.7.2h-.9c.2-1.9.4-3.5.7-5Zm7.6-2.4a13.25,13.25,0,0,1-5.9,2.2l-6.3-6.1a13.35,13.35,0,0,1,2-4.8Zm19.8-20.7a17.73,17.73,0,0,1-6.2,3.9l-8-6.1c-.2-2.2-.3-4.8.9-7a.1.1,0,0,1,.1-.1Zm-15.7,15.1L98,121.2c2.3-.7,5.2-1,9.8-1.2A20.78,20.78,0,0,1,106.5,128.6Zm8-10.7a21,21,0,0,1-5.4.9h-.2c-.1-1.4-.4-2.9-.5-4-.1-.6-.2-1.2-.3-1.7Zm-17.9,3.8,9.3,8.1a18.08,18.08,0,0,1-1.9,2.9l-.6.6-10.5-8.9A9.36,9.36,0,0,1,96.6,121.7Zm33.5-28.6a18.09,18.09,0,0,1-6.2,1.9h0a.76.76,0,0,1-.2-.4,18.71,18.71,0,0,1-1.9-6.5Zm-6.9,3.2c1.1,2.2,2.8,5.4,2.6,9.2l-10.3-7.2A26.17,26.17,0,0,1,123.2,96.3Zm8.1-3.9-9.6-5.9a13.86,13.86,0,0,1,.3-3,9.82,9.82,0,0,1,1.3-3.2l12.1,7.1a10.93,10.93,0,0,1-.8,1.5A15.62,15.62,0,0,1,131.3,92.4Zm-17.1,6.5,11.4,8a10.38,10.38,0,0,1-.3,1.2,11.65,11.65,0,0,1-2.3,4.4L109.5,103A15.64,15.64,0,0,1,114.2,98.9Zm22.4-17.2a16.35,16.35,0,0,1-.9,4.5l-11.8-7a12.1,12.1,0,0,1,3.1-2.8Zm-8.4-6.1a23.61,23.61,0,0,1,7.3-2.8l.1.6a26.14,26.14,0,0,1,1,6.9Z"/></g></g></g></svg>