<svg width="1888" height="543" xmlns="http://www.w3.org/2000/svg" xmlns:xlink="http://www.w3.org/1999/xlink" overflow="hidden"><defs><filter id="fx0" x="-10%" y="-10%" width="120%" height="120%" filterUnits="userSpaceOnUse" primitiveUnits="userSpaceOnUse"><feComponentTransfer color-interpolation-filters="sRGB"><feFuncR type="discrete" tableValues="0.431373 0.431373"/><feFuncG type="discrete" tableValues="0.454902 0.454902"/><feFuncB type="discrete" tableValues="0.478431 0.478431"/><feFuncA type="linear" slope="0.431373" intercept="0"/></feComponentTransfer><feGaussianBlur stdDeviation="3.70452 3.70452"/></filter><filter id="fx1" x="-10%" y="-10%" width="120%" height="120%" filterUnits="userSpaceOnUse" primitiveUnits="userSpaceOnUse"><feComponentTransfer color-interpolation-filters="sRGB"><feFuncR type="discrete" tableValues="0.431373 0.431373"/><feFuncG type="discrete" tableValues="0.454902 0.454902"/><feFuncB type="discrete" tableValues="0.478431 0.478431"/><feFuncA type="linear" slope="0.431373" intercept="0"/></feComponentTransfer><feGaussianBlur stdDeviation="3.70452 3.70452"/></filter><filter id="fx2" x="-10%" y="-10%" width="120%" height="120%" filterUnits="userSpaceOnUse" primitiveUnits="userSpaceOnUse"><feComponentTransfer color-interpolation-filters="sRGB"><feFuncR type="discrete" tableValues="0.431373 0.431373"/><feFuncG type="discrete" tableValues="0.454902 0.454902"/><feFuncB type="discrete" tableValues="0.478431 0.478431"/><feFuncA type="linear" slope="0.431373" intercept="0"/></feComponentTransfer><feGaussianBlur stdDeviation="3.70452 3.70452"/></filter><clipPath id="clip3"><rect x="1256" y="1009" width="1888" height="543"/></clipPath><clipPath id="clip4"><rect x="35" y="27" width="311" height="99"/></clipPath><clipPath id="clip5"><rect x="0" y="0" width="1313" height="545"/></clipPath><clipPath id="clip6"><rect x="33" y="27" width="91" height="83"/></clipPath><clipPath id="clip7"><rect x="0" y="0" width="557" height="545"/></clipPath><clipPath id="clip8"><rect x="35" y="27" width="124" height="83"/></clipPath><clipPath id="clip9"><rect x="0" y="0" width="666" height="545"/></clipPath></defs><g clip-path="url(#clip3)" transform="translate(-1256 -1009)"><g clip-path="url(#clip4)" filter="url(#fx0)" transform="translate(1255 1008)"><g clip-path="url(#clip5)"><path d="M18.1641 0 18.1641-177.523 84.7656-177.523C98.3281-177.523 109.206-175.727 117.4-172.135 125.594-168.542 132.012-163.012 136.654-155.545 141.296-148.077 143.617-140.267 143.617-132.113 143.617-124.525 141.559-117.38 137.441-110.68 133.324-103.979 127.108-98.5703 118.793-94.4531 129.53-91.3047 137.784-85.9362 143.557-78.3476 149.329-70.7591 152.215-61.7982 152.215-51.4648 152.215-43.1497 150.459-35.4199 146.947-28.2754 143.436-21.1309 139.096-15.6211 133.93-11.7461 128.763-7.87109 122.284-4.94466 114.494-2.9668 106.704-0.988932 97.1575 0 85.8555 0ZM41.6562-102.93 80.043-102.93C90.457-102.93 97.9245-103.616 102.445-104.988 108.419-106.764 112.92-109.711 115.947-113.828 118.975-117.945 120.488-123.112 120.488-129.328 120.488-135.221 119.076-140.408 116.25-144.889 113.424-149.369 109.388-152.437 104.141-154.092 98.8932-155.747 89.8919-156.574 77.1367-156.574L41.6562-156.574ZM41.6562-20.9492 85.8555-20.9492C93.444-20.9492 98.7721-21.2318 101.84-21.7969 107.249-22.7656 111.77-24.3802 115.402-26.6406 119.035-28.901 122.022-32.1908 124.363-36.5098 126.704-40.8288 127.875-45.8138 127.875-51.4648 127.875-58.0846 126.18-63.8366 122.789-68.7207 119.398-73.6048 114.696-77.0358 108.682-79.0137 102.667-80.9915 94.0091-81.9805 82.707-81.9805L41.6562-81.9805ZM181.105 0 181.105-128.602 200.723-128.602 200.723-109.105C205.728-118.228 210.35-124.242 214.588-127.148 218.826-130.055 223.488-131.508 228.574-131.508 235.921-131.508 243.388-129.167 250.977-124.484L243.469-104.262C238.141-107.41 232.812-108.984 227.484-108.984 222.721-108.984 218.443-107.551 214.648-104.686 210.854-101.82 208.15-97.8437 206.535-92.7578 204.113-85.0078 202.902-76.5312 202.902-67.3281L202.902 0ZM351.883-41.4141 374.406-38.6289C370.854-25.47 364.275-15.2578 354.668-7.99219 345.061-0.726563 332.79 2.90625 317.855 2.90625 299.046 2.90625 284.131-2.88607 273.111-14.4707 262.092-26.0553 256.582-42.3021 256.582-63.2109 256.582-84.8463 262.152-101.638 273.293-113.586 284.434-125.534 298.884-131.508 316.645-131.508 333.84-131.508 347.887-125.655 358.785-113.949 369.684-102.243 375.133-85.7747 375.133-64.543 375.133-63.2513 375.092-61.3138 375.012-58.7305L279.105-58.7305C279.913-44.6029 283.909-33.7852 291.094-26.2773 298.279-18.7695 307.24-15.0156 317.977-15.0156 325.969-15.0156 332.79-17.1146 338.441-21.3125 344.092-25.5104 348.573-32.2109 351.883-41.4141ZM280.316-76.6523 352.125-76.6523C351.156-87.47 348.411-95.5833 343.891-100.992 336.948-109.388 327.947-113.586 316.887-113.586 306.876-113.586 298.46-110.236 291.639-103.535 284.817-96.8346 281.043-87.8737 280.316-76.6523ZM489.383-41.4141 511.906-38.6289C508.354-25.47 501.775-15.2578 492.168-7.99219 482.561-0.726563 470.29 2.90625 455.355 2.90625 436.545 2.90625 421.631-2.88607 410.611-14.4707 399.592-26.0553 394.082-42.3021 394.082-63.2109 394.082-84.8463 399.652-101.638 410.793-113.586 421.934-125.534 436.384-131.508 454.144-131.508 471.34-131.508 485.387-125.655 496.285-113.949 507.184-102.243 512.633-85.7747 512.633-64.543 512.633-63.2513 512.592-61.3138 512.512-58.7305L416.605-58.7305C417.413-44.6029 421.409-33.7852 428.594-26.2773 435.779-18.7695 444.74-15.0156 455.477-15.0156 463.469-15.0156 470.29-17.1146 475.941-21.3125 481.592-25.5104 486.073-32.2109 489.383-41.4141ZM417.816-76.6523 489.625-76.6523C488.656-87.47 485.911-95.5833 481.391-100.992 474.448-109.388 465.447-113.586 454.387-113.586 444.376-113.586 435.96-110.236 429.139-103.535 422.317-96.8346 418.543-87.8737 417.816-76.6523ZM622.281 0 622.281-16.2266C614.128-3.47135 602.139 2.90625 586.316 2.90625 576.064 2.90625 566.639 0.080729 558.041-5.57031 549.443-11.2214 542.783-19.1126 538.06-29.2441 533.338-39.3756 530.977-51.0208 530.977-64.1797 530.977-77.0156 533.116-88.6608 537.394-99.1152 541.673-109.57 548.091-117.582 556.648-123.152 565.206-128.723 574.772-131.508 585.348-131.508 593.098-131.508 600-129.873 606.055-126.604 612.109-123.334 617.034-119.076 620.828-113.828L620.828-177.523 642.504-177.523 642.504 0ZM553.379-64.1797C553.379-47.7109 556.85-35.3997 563.793-27.2461 570.736-19.0924 578.93-15.0156 588.375-15.0156 597.901-15.0156 605.994-18.9108 612.654-26.7012 619.314-34.4915 622.644-46.3789 622.644-62.3633 622.644-79.9622 619.254-92.8789 612.473-101.113 605.691-109.348 597.336-113.465 587.406-113.465 577.719-113.465 569.626-109.509 563.127-101.598 556.628-93.6862 553.379-81.2135 553.379-64.1797ZM676.469-152.457 676.469-177.523 698.266-177.523 698.266-152.457ZM676.469 0 676.469-128.602 698.266-128.602 698.266 0ZM731.348 0 731.348-128.602 750.965-128.602 750.965-110.316C760.41-124.444 774.053-131.508 791.894-131.508 799.644-131.508 806.769-130.115 813.268-127.33 819.766-124.545 824.63-120.892 827.859-116.371 831.088-111.85 833.349-106.482 834.641-100.266 835.448-96.2292 835.852-89.1654 835.852-79.0742L835.852 0 814.055 0 814.055-78.2266C814.055-87.1068 813.207-93.7467 811.512-98.1465 809.816-102.546 806.809-106.058 802.49-108.682 798.171-111.305 793.105-112.617 787.293-112.617 778.009-112.617 769.997-109.671 763.256-103.777 756.515-97.8841 753.144-86.7031 753.144-70.2344L753.144 0ZM864.852 10.6562 886.043 13.8047C886.931 20.3437 889.393 25.1068 893.43 28.0937 898.838 32.1302 906.225 34.1484 915.59 34.1484 925.681 34.1484 933.471 32.1302 938.961 28.0937 944.45 24.0573 948.164 18.4062 950.102 11.1406 951.232 6.70052 951.756-2.6237 951.676-16.832 942.15-5.61068 930.282 0 916.074 0 898.394 0 884.711-6.3776 875.023-19.1328 865.336-31.888 860.492-47.1862 860.492-65.0273 860.492-77.2982 862.712-88.6204 867.152-98.9941 871.592-109.368 878.031-117.38 886.467-123.031 894.903-128.682 904.812-131.508 916.195-131.508 931.372-131.508 943.885-125.372 953.734-113.102L953.734-128.602 973.836-128.602 973.836-17.4375C973.836 2.58333 971.797 16.7715 967.721 25.127 963.644 33.4824 957.185 40.082 948.346 44.9258 939.506 49.7695 928.628 52.1914 915.711 52.1914 900.372 52.1914 887.98 48.7402 878.535 41.8379 869.09 34.9355 864.529 24.5417 864.852 10.6562ZM882.894-66.6016C882.894-49.7292 886.245-37.418 892.945-29.668 899.646-21.918 908.042-18.043 918.133-18.043 928.143-18.043 936.539-21.8978 943.32-29.6074 950.101-37.3171 953.492-49.4062 953.492-65.875 953.492-81.6172 950.001-93.4844 943.018-101.477 936.034-109.469 927.618-113.465 917.769-113.465 908.082-113.465 899.848-109.529 893.066-101.658 886.285-93.7871 882.894-82.1015 882.894-66.6016Z" fill="#92D050" transform="matrix(1 0 0 1 161.251 328)"/></g></g><text fill="#92D050" font-family="Arial,Arial_MSFontService,sans-serif" font-weight="400" font-size="248" transform="matrix(1 0 0 1 1416.25 1328)">Breeding</text><g clip-path="url(#clip6)" filter="url(#fx1)" transform="translate(2245 1008)"><g clip-path="url(#clip7)"><path d="M-0.363281 0 67.8125-177.523 93.1211-177.523 165.777 0 139.016 0 118.309-53.7656 44.0781-53.7656 24.582 0ZM50.8594-72.8984 111.043-72.8984 92.5156-122.062C86.8646-136.997 82.6667-149.268 79.9219-158.875 77.6614-147.492 74.4726-136.19 70.3555-124.969ZM188.129 0 188.129-177.523 211.621-177.523 211.621 0Z" fill="#4472C4" transform="matrix(1 0 0 1 161.251 328)"/></g></g><text fill="#4472C4" font-family="Arial,Arial_MSFontService,sans-serif" font-weight="400" font-size="248" transform="matrix(1 0 0 1 2406.25 1328)">AI</text><g clip-path="url(#clip8)" filter="url(#fx2)" transform="translate(2479 1008)"><g clip-path="url(#clip9)"><path d="M19.1328 0 19.1328-177.523 80.2851-177.523C94.0898-177.523 104.625-176.676 111.891-174.98 122.062-172.639 130.741-168.401 137.926-162.266 147.29-154.354 154.294-144.243 158.936-131.932 163.577-119.62 165.898-105.553 165.898-89.7305 165.898-76.2487 164.324-64.3008 161.176-53.8867 158.027-43.4726 153.991-34.8548 149.066-28.0332 144.142-21.2116 138.753-15.8431 132.9-11.9277 127.048-8.01237 119.984-5.04557 111.709-3.02734 103.434-1.00911 93.9284 0 83.1914 0ZM42.625-20.9492 80.5273-20.9492C92.2331-20.9492 101.416-22.0391 108.076-24.2187 114.736-26.3984 120.044-29.4661 124-33.4219 129.57-38.9922 133.909-46.4798 137.018-55.8848 140.126-65.2897 141.68-76.6927 141.68-90.0937 141.68-108.661 138.632-122.93 132.537-132.9 126.442-142.87 119.035-149.551 110.316-152.941 104.02-155.363 93.888-156.574 79.9219-156.574L42.625-156.574ZM196.914 0 196.914-177.523 263.516-177.523C277.078-177.523 287.956-175.727 296.15-172.135 304.344-168.542 310.762-163.012 315.404-155.545 320.046-148.077 322.367-140.267 322.367-132.113 322.367-124.525 320.309-117.38 316.191-110.68 312.074-103.979 305.858-98.5703 297.543-94.4531 308.28-91.3047 316.534-85.9362 322.307-78.3476 328.079-70.7591 330.965-61.7982 330.965-51.4648 330.965-43.1497 329.209-35.4199 325.697-28.2754 322.185-21.1309 317.846-15.6211 312.68-11.7461 307.513-7.87109 301.034-4.94466 293.244-2.9668 285.454-0.988932 275.908 0 264.605 0ZM220.406-102.93 258.793-102.93C269.207-102.93 276.674-103.616 281.195-104.988 287.169-106.764 291.67-109.711 294.697-113.828 297.725-117.945 299.238-123.112 299.238-129.328 299.238-135.221 297.826-140.408 295-144.889 292.174-149.369 288.138-152.437 282.891-154.092 277.643-155.747 268.642-156.574 255.887-156.574L220.406-156.574ZM220.406-20.9492 264.605-20.9492C272.194-20.9492 277.522-21.2318 280.59-21.7969 285.999-22.7656 290.52-24.3802 294.152-26.6406 297.785-28.901 300.772-32.1908 303.113-36.5098 305.454-40.8288 306.625-45.8138 306.625-51.4648 306.625-58.0846 304.93-63.8366 301.539-68.7207 298.148-73.6048 293.446-77.0358 287.432-79.0137 281.417-80.9915 272.759-81.9805 261.457-81.9805L220.406-81.9805Z" fill="#A6A6A6" transform="matrix(1 0 0 1 161.001 328)"/></g></g><text fill="#A6A6A6" font-family="Arial,Arial_MSFontService,sans-serif" font-weight="400" font-size="248" transform="matrix(1 0 0 1 2640 1328)">DB</text><path d="M2105 1132.08C2089.5 1132.08 2077 1144.74 2077 1160.45 2077 1165.41 2078.3 1170.07 2080.5 1174.13 2082.6 1171.9 2084.9 1169.67 2087.4 1167.24 2093.7 1161.26 2101.1 1155.18 2107.3 1150.72 2107.7 1150.42 2108.1 1150.22 2108.6 1150.22 2109.7 1150.22 2110.6 1151.13 2110.6 1152.24 2110.6 1152.95 2110.3 1153.46 2109.8 1153.86L2109.8 1153.86C2100.9 1160.35 2089.1 1170.38 2081.1 1179.5 2081.1 1179.5 2080 1180.71 2079.5 1181.32L2079.5 1181.32C2075 1186.69 2072 1191.56 2072 1195L2078 1195C2078 1192.77 2081.5 1187.91 2086.8 1182.13 2091.7 1186.39 2098 1188.92 2105 1188.92 2110 1188.92 2114.8 1187.6 2118.9 1185.17L2118.9 1185.17C2140.3 1173.11 2143 1150.93 2143 1126 2143 1126 2119.7 1132.48 2105 1132.08Z" fill="#92D050" fill-rule="evenodd"/></g></svg>